<mxfile host="Electron" modified="2023-04-22T15:32:34.482Z" agent="Mozilla/5.0 (Windows NT 10.0; Win64; x64) AppleWebKit/537.36 (KHTML, like Gecko) draw.io/21.2.1 Chrome/112.0.5615.87 Electron/24.1.2 Safari/537.36" etag="J3yKIDZHABEtt-LLb_v4" version="21.2.1" type="device">
  <diagram id="C5RBs43oDa-KdzZeNtuy" name="Page-1">
    <mxGraphModel dx="1434" dy="836" grid="1" gridSize="10" guides="1" tooltips="1" connect="1" arrows="1" fold="1" page="1" pageScale="1" pageWidth="827" pageHeight="1169" math="0" shadow="0">
      <root>
        <mxCell id="WIyWlLk6GJQsqaUBKTNV-0" />
        <mxCell id="WIyWlLk6GJQsqaUBKTNV-1" parent="WIyWlLk6GJQsqaUBKTNV-0" />
        <mxCell id="Q06K7-yVwiBWQH0qNbWU-43" style="edgeStyle=orthogonalEdgeStyle;rounded=0;orthogonalLoop=1;jettySize=auto;html=1;" parent="WIyWlLk6GJQsqaUBKTNV-1" source="Q06K7-yVwiBWQH0qNbWU-17" target="Q06K7-yVwiBWQH0qNbWU-42" edge="1">
          <mxGeometry relative="1" as="geometry" />
        </mxCell>
        <mxCell id="Q06K7-yVwiBWQH0qNbWU-17" value="Temporary Scraping DB&#39;s" style="rounded=1;whiteSpace=wrap;html=1;absoluteArcSize=1;arcSize=14;strokeWidth=2;verticalAlign=top;" parent="WIyWlLk6GJQsqaUBKTNV-1" vertex="1">
          <mxGeometry x="455" y="430" width="260" height="110" as="geometry" />
        </mxCell>
        <mxCell id="Q06K7-yVwiBWQH0qNbWU-21" style="edgeStyle=orthogonalEdgeStyle;rounded=0;orthogonalLoop=1;jettySize=auto;html=1;shape=flexArrow;fillColor=#FFFFFF;fillStyle=solid;" parent="WIyWlLk6GJQsqaUBKTNV-1" source="WIyWlLk6GJQsqaUBKTNV-3" target="Q06K7-yVwiBWQH0qNbWU-9" edge="1">
          <mxGeometry relative="1" as="geometry" />
        </mxCell>
        <mxCell id="WIyWlLk6GJQsqaUBKTNV-3" value="&lt;b&gt;Link Collection&lt;/b&gt;" style="rounded=1;whiteSpace=wrap;html=1;fontSize=12;glass=0;strokeWidth=1;shadow=0;verticalAlign=top;" parent="WIyWlLk6GJQsqaUBKTNV-1" vertex="1">
          <mxGeometry x="92" y="40" width="270" height="180" as="geometry" />
        </mxCell>
        <mxCell id="Q06K7-yVwiBWQH0qNbWU-46" style="edgeStyle=orthogonalEdgeStyle;rounded=0;orthogonalLoop=1;jettySize=auto;html=1;entryX=0.5;entryY=0;entryDx=0;entryDy=0;" parent="WIyWlLk6GJQsqaUBKTNV-1" source="Q06K7-yVwiBWQH0qNbWU-1" target="Q06K7-yVwiBWQH0qNbWU-45" edge="1">
          <mxGeometry relative="1" as="geometry" />
        </mxCell>
        <mxCell id="Q06K7-yVwiBWQH0qNbWU-67" style="edgeStyle=orthogonalEdgeStyle;rounded=0;orthogonalLoop=1;jettySize=auto;html=1;exitX=1;exitY=0.15;exitDx=0;exitDy=0;exitPerimeter=0;entryX=0;entryY=0.25;entryDx=0;entryDy=0;" parent="WIyWlLk6GJQsqaUBKTNV-1" source="Q06K7-yVwiBWQH0qNbWU-1" target="Q06K7-yVwiBWQH0qNbWU-54" edge="1">
          <mxGeometry relative="1" as="geometry">
            <Array as="points">
              <mxPoint x="790" y="672" />
              <mxPoint x="790" y="600" />
            </Array>
          </mxGeometry>
        </mxCell>
        <mxCell id="Q06K7-yVwiBWQH0qNbWU-68" style="edgeStyle=orthogonalEdgeStyle;rounded=0;orthogonalLoop=1;jettySize=auto;html=1;exitX=0;exitY=0.85;exitDx=0;exitDy=0;exitPerimeter=0;entryX=1;entryY=0.25;entryDx=0;entryDy=0;" parent="WIyWlLk6GJQsqaUBKTNV-1" source="Q06K7-yVwiBWQH0qNbWU-1" target="Q06K7-yVwiBWQH0qNbWU-48" edge="1">
          <mxGeometry relative="1" as="geometry" />
        </mxCell>
        <mxCell id="Q06K7-yVwiBWQH0qNbWU-1" value="&lt;br&gt;Political Sentiment.duckdb" style="strokeWidth=2;html=1;shape=mxgraph.flowchart.database;whiteSpace=wrap;align=center;verticalAlign=middle;" parent="WIyWlLk6GJQsqaUBKTNV-1" vertex="1">
          <mxGeometry x="610" y="660" width="130" height="80" as="geometry" />
        </mxCell>
        <mxCell id="Q06K7-yVwiBWQH0qNbWU-5" value="sitemap_collection_and_cleanup.qmd&lt;br&gt;sitemap_cleanup_linkchecker.qmd" style="strokeWidth=2;html=1;shape=mxgraph.flowchart.document2;whiteSpace=wrap;size=0.25;verticalAlign=top;" parent="WIyWlLk6GJQsqaUBKTNV-1" vertex="1">
          <mxGeometry x="118" y="150" width="216" height="60" as="geometry" />
        </mxCell>
        <mxCell id="Q06K7-yVwiBWQH0qNbWU-6" value="Sources:&lt;br&gt;Linkchecker&lt;br&gt;sitemap.xml" style="rounded=1;whiteSpace=wrap;html=1;absoluteArcSize=1;arcSize=14;strokeWidth=2;" parent="WIyWlLk6GJQsqaUBKTNV-1" vertex="1">
          <mxGeometry x="122" y="70" width="100" height="60" as="geometry" />
        </mxCell>
        <mxCell id="Q06K7-yVwiBWQH0qNbWU-7" value="Tools:&lt;br&gt;xml2&lt;br&gt;tidytable" style="rounded=1;whiteSpace=wrap;html=1;absoluteArcSize=1;arcSize=14;strokeWidth=2;" parent="WIyWlLk6GJQsqaUBKTNV-1" vertex="1">
          <mxGeometry x="242" y="75" width="80" height="50" as="geometry" />
        </mxCell>
        <mxCell id="Q06K7-yVwiBWQH0qNbWU-13" style="edgeStyle=orthogonalEdgeStyle;rounded=0;orthogonalLoop=1;jettySize=auto;html=1;entryX=1;entryY=0.5;entryDx=0;entryDy=0;entryPerimeter=0;exitX=1;exitY=0.5;exitDx=0;exitDy=0;" parent="WIyWlLk6GJQsqaUBKTNV-1" source="Q06K7-yVwiBWQH0qNbWU-9" target="Q06K7-yVwiBWQH0qNbWU-1" edge="1">
          <mxGeometry relative="1" as="geometry">
            <mxPoint x="810" y="360" as="targetPoint" />
            <Array as="points">
              <mxPoint x="880" y="130" />
              <mxPoint x="880" y="700" />
            </Array>
          </mxGeometry>
        </mxCell>
        <mxCell id="Q06K7-yVwiBWQH0qNbWU-20" style="edgeStyle=orthogonalEdgeStyle;rounded=0;orthogonalLoop=1;jettySize=auto;html=1;entryX=0.5;entryY=0;entryDx=0;entryDy=0;" parent="WIyWlLk6GJQsqaUBKTNV-1" source="Q06K7-yVwiBWQH0qNbWU-9" target="Q06K7-yVwiBWQH0qNbWU-17" edge="1">
          <mxGeometry relative="1" as="geometry" />
        </mxCell>
        <mxCell id="Q06K7-yVwiBWQH0qNbWU-47" style="edgeStyle=orthogonalEdgeStyle;rounded=0;orthogonalLoop=1;jettySize=auto;html=1;exitX=0.5;exitY=1;exitDx=0;exitDy=0;entryX=0.75;entryY=0;entryDx=0;entryDy=0;shape=flexArrow;fillColor=#FFFFFF;fillStyle=solid;" parent="WIyWlLk6GJQsqaUBKTNV-1" source="Q06K7-yVwiBWQH0qNbWU-9" target="Q06K7-yVwiBWQH0qNbWU-22" edge="1">
          <mxGeometry relative="1" as="geometry" />
        </mxCell>
        <mxCell id="Q06K7-yVwiBWQH0qNbWU-9" value="&lt;b&gt;Data Managment&lt;/b&gt;" style="rounded=1;whiteSpace=wrap;html=1;fontSize=12;glass=0;strokeWidth=1;shadow=0;verticalAlign=top;" parent="WIyWlLk6GJQsqaUBKTNV-1" vertex="1">
          <mxGeometry x="460" y="45" width="250" height="170" as="geometry" />
        </mxCell>
        <mxCell id="Q06K7-yVwiBWQH0qNbWU-10" value="data_managment_duckdb.qmd&lt;br&gt;data_management_scrape_db.qmd" style="strokeWidth=2;html=1;shape=mxgraph.flowchart.document2;whiteSpace=wrap;size=0.25;verticalAlign=top;" parent="WIyWlLk6GJQsqaUBKTNV-1" vertex="1">
          <mxGeometry x="476" y="145" width="216" height="60" as="geometry" />
        </mxCell>
        <mxCell id="Q06K7-yVwiBWQH0qNbWU-12" value="Tools:&lt;br&gt;tidytable&lt;br&gt;DBI&lt;br&gt;DuckDB" style="rounded=1;whiteSpace=wrap;html=1;absoluteArcSize=1;arcSize=14;strokeWidth=2;" parent="WIyWlLk6GJQsqaUBKTNV-1" vertex="1">
          <mxGeometry x="484" y="65" width="200" height="65" as="geometry" />
        </mxCell>
        <mxCell id="Q06K7-yVwiBWQH0qNbWU-14" value="scrape_mani.&lt;br style=&quot;font-size: 7px;&quot;&gt;duckdb" style="strokeWidth=2;html=1;shape=mxgraph.flowchart.database;whiteSpace=wrap;fontSize=7;" parent="WIyWlLk6GJQsqaUBKTNV-1" vertex="1">
          <mxGeometry x="559" y="460" width="60" height="60" as="geometry" />
        </mxCell>
        <mxCell id="Q06K7-yVwiBWQH0qNbWU-15" value="scrape_aei&lt;br style=&quot;font-size: 7px;&quot;&gt;.duckdb" style="strokeWidth=2;html=1;shape=mxgraph.flowchart.database;whiteSpace=wrap;fontSize=7;" parent="WIyWlLk6GJQsqaUBKTNV-1" vertex="1">
          <mxGeometry x="489" y="460" width="60" height="60" as="geometry" />
        </mxCell>
        <mxCell id="Q06K7-yVwiBWQH0qNbWU-16" value="scrape_*.&lt;br style=&quot;font-size: 7px;&quot;&gt;duckdb" style="strokeWidth=2;html=1;shape=mxgraph.flowchart.database;whiteSpace=wrap;fontSize=7;" parent="WIyWlLk6GJQsqaUBKTNV-1" vertex="1">
          <mxGeometry x="629" y="460" width="60" height="60" as="geometry" />
        </mxCell>
        <mxCell id="Q06K7-yVwiBWQH0qNbWU-53" style="rounded=0;orthogonalLoop=1;jettySize=auto;html=1;shape=flexArrow;fillColor=#FFFFFF;fillStyle=solid;shadow=0;" parent="WIyWlLk6GJQsqaUBKTNV-1" source="Q06K7-yVwiBWQH0qNbWU-22" target="Q06K7-yVwiBWQH0qNbWU-48" edge="1">
          <mxGeometry relative="1" as="geometry" />
        </mxCell>
        <mxCell id="Q06K7-yVwiBWQH0qNbWU-22" value="&lt;b&gt;Webscrape&lt;/b&gt;" style="rounded=1;whiteSpace=wrap;html=1;fontSize=12;glass=0;strokeWidth=1;shadow=0;verticalAlign=top;" parent="WIyWlLk6GJQsqaUBKTNV-1" vertex="1">
          <mxGeometry x="60" y="280" width="360" height="320" as="geometry" />
        </mxCell>
        <mxCell id="Q06K7-yVwiBWQH0qNbWU-23" value="link_preparation.qmd&lt;br&gt;scraping_functions_refactor.qmd&lt;br&gt;web_scraping_testing.qmd" style="strokeWidth=2;html=1;shape=mxgraph.flowchart.document2;whiteSpace=wrap;size=0.25;verticalAlign=top;" parent="WIyWlLk6GJQsqaUBKTNV-1" vertex="1">
          <mxGeometry x="132" y="520" width="216" height="70" as="geometry" />
        </mxCell>
        <mxCell id="Q06K7-yVwiBWQH0qNbWU-24" value="Tools:&lt;br&gt;xml2&lt;br&gt;rvest&lt;br&gt;RSelenium&lt;br&gt;tidytable&lt;br&gt;DBI&lt;br&gt;DuckDB&lt;br&gt;glue" style="rounded=1;whiteSpace=wrap;html=1;absoluteArcSize=1;arcSize=14;strokeWidth=2;align=center;" parent="WIyWlLk6GJQsqaUBKTNV-1" vertex="1">
          <mxGeometry x="84" y="310" width="106" height="200" as="geometry" />
        </mxCell>
        <mxCell id="Q06K7-yVwiBWQH0qNbWU-26" value="Functions:&lt;br&gt;sitemap_viable_links.R&lt;br&gt;text_sql_statements.R&lt;br&gt;scraping_helpers.R&lt;br&gt;article_pull_html.R&lt;br&gt;article_pull_js.R&lt;br&gt;write_to_db.R&lt;br&gt;write_to_db_js.R" style="rounded=1;whiteSpace=wrap;html=1;absoluteArcSize=1;arcSize=14;strokeWidth=2;" parent="WIyWlLk6GJQsqaUBKTNV-1" vertex="1">
          <mxGeometry x="200" y="370" width="200" height="140" as="geometry" />
        </mxCell>
        <mxCell id="Q06K7-yVwiBWQH0qNbWU-27" value="Main Scripts:&lt;br&gt;viable_links_*.R" style="rounded=1;whiteSpace=wrap;html=1;absoluteArcSize=1;arcSize=14;strokeWidth=2;" parent="WIyWlLk6GJQsqaUBKTNV-1" vertex="1">
          <mxGeometry x="200" y="310" width="200" height="50" as="geometry" />
        </mxCell>
        <mxCell id="Q06K7-yVwiBWQH0qNbWU-32" style="orthogonalLoop=1;jettySize=auto;html=1;entryX=0;entryY=0.5;entryDx=0;entryDy=0;elbow=vertical;" parent="WIyWlLk6GJQsqaUBKTNV-1" source="Q06K7-yVwiBWQH0qNbWU-28" target="Q06K7-yVwiBWQH0qNbWU-29" edge="1">
          <mxGeometry relative="1" as="geometry" />
        </mxCell>
        <mxCell id="Q06K7-yVwiBWQH0qNbWU-28" value="Create Scrape DB" style="rounded=1;whiteSpace=wrap;html=1;absoluteArcSize=1;arcSize=14;strokeWidth=2;" parent="WIyWlLk6GJQsqaUBKTNV-1" vertex="1">
          <mxGeometry x="450" y="320" width="109" height="30" as="geometry" />
        </mxCell>
        <mxCell id="Q06K7-yVwiBWQH0qNbWU-34" style="edgeStyle=orthogonalEdgeStyle;orthogonalLoop=1;jettySize=auto;html=1;entryX=0.5;entryY=0;entryDx=0;entryDy=0;exitX=1;exitY=0.5;exitDx=0;exitDy=0;curved=1;" parent="WIyWlLk6GJQsqaUBKTNV-1" source="Q06K7-yVwiBWQH0qNbWU-29" target="Q06K7-yVwiBWQH0qNbWU-33" edge="1">
          <mxGeometry relative="1" as="geometry" />
        </mxCell>
        <mxCell id="Q06K7-yVwiBWQH0qNbWU-29" value="Create Article&lt;br&gt;Table" style="rounded=1;whiteSpace=wrap;html=1;absoluteArcSize=1;arcSize=14;strokeWidth=2;" parent="WIyWlLk6GJQsqaUBKTNV-1" vertex="1">
          <mxGeometry x="640" y="315" width="100" height="40" as="geometry" />
        </mxCell>
        <mxCell id="Q06K7-yVwiBWQH0qNbWU-37" style="edgeStyle=orthogonalEdgeStyle;rounded=0;orthogonalLoop=1;jettySize=auto;html=1;entryX=0.5;entryY=0;entryDx=0;entryDy=0;" parent="WIyWlLk6GJQsqaUBKTNV-1" source="Q06K7-yVwiBWQH0qNbWU-33" target="Q06K7-yVwiBWQH0qNbWU-36" edge="1">
          <mxGeometry relative="1" as="geometry" />
        </mxCell>
        <mxCell id="Q06K7-yVwiBWQH0qNbWU-33" value="Scrape" style="rounded=1;whiteSpace=wrap;html=1;absoluteArcSize=1;arcSize=14;strokeWidth=2;" parent="WIyWlLk6GJQsqaUBKTNV-1" vertex="1">
          <mxGeometry x="760" y="390" width="100" height="35" as="geometry" />
        </mxCell>
        <mxCell id="Q06K7-yVwiBWQH0qNbWU-41" style="edgeStyle=orthogonalEdgeStyle;orthogonalLoop=1;jettySize=auto;html=1;entryX=1;entryY=0.5;entryDx=0;entryDy=0;curved=1;" parent="WIyWlLk6GJQsqaUBKTNV-1" source="Q06K7-yVwiBWQH0qNbWU-36" target="Q06K7-yVwiBWQH0qNbWU-17" edge="1">
          <mxGeometry relative="1" as="geometry" />
        </mxCell>
        <mxCell id="Q06K7-yVwiBWQH0qNbWU-36" value="Insert in Scrape DB" style="rounded=1;whiteSpace=wrap;html=1;absoluteArcSize=1;arcSize=14;strokeWidth=2;" parent="WIyWlLk6GJQsqaUBKTNV-1" vertex="1">
          <mxGeometry x="760" y="472.5" width="100" height="35" as="geometry" />
        </mxCell>
        <mxCell id="Q06K7-yVwiBWQH0qNbWU-44" style="edgeStyle=orthogonalEdgeStyle;rounded=0;orthogonalLoop=1;jettySize=auto;html=1;" parent="WIyWlLk6GJQsqaUBKTNV-1" source="Q06K7-yVwiBWQH0qNbWU-42" target="Q06K7-yVwiBWQH0qNbWU-1" edge="1">
          <mxGeometry relative="1" as="geometry" />
        </mxCell>
        <mxCell id="Q06K7-yVwiBWQH0qNbWU-42" value="EXPORT DB&lt;br&gt;Create Article Table&lt;br&gt;COPY FROM" style="rounded=1;whiteSpace=wrap;html=1;absoluteArcSize=1;arcSize=14;strokeWidth=2;" parent="WIyWlLk6GJQsqaUBKTNV-1" vertex="1">
          <mxGeometry x="522.5" y="570" width="125" height="50" as="geometry" />
        </mxCell>
        <mxCell id="Q06K7-yVwiBWQH0qNbWU-45" value="EXPORT DATABASE&lt;br&gt;Backup in Parquet" style="rounded=1;whiteSpace=wrap;html=1;absoluteArcSize=1;arcSize=14;strokeWidth=2;" parent="WIyWlLk6GJQsqaUBKTNV-1" vertex="1">
          <mxGeometry x="610" y="800" width="130" height="40" as="geometry" />
        </mxCell>
        <mxCell id="Q06K7-yVwiBWQH0qNbWU-59" style="rounded=0;orthogonalLoop=1;jettySize=auto;html=1;entryX=0;entryY=0.5;entryDx=0;entryDy=0;shape=flexArrow;fillColor=#FFFFFF;" parent="WIyWlLk6GJQsqaUBKTNV-1" source="Q06K7-yVwiBWQH0qNbWU-48" target="Q06K7-yVwiBWQH0qNbWU-54" edge="1">
          <mxGeometry relative="1" as="geometry">
            <Array as="points">
              <mxPoint x="760" y="880" />
            </Array>
          </mxGeometry>
        </mxCell>
        <mxCell id="Q06K7-yVwiBWQH0qNbWU-48" value="&lt;b&gt;Exploratory Data Analysis&lt;/b&gt;" style="rounded=1;whiteSpace=wrap;html=1;fontSize=12;glass=0;strokeWidth=1;shadow=0;verticalAlign=top;" parent="WIyWlLk6GJQsqaUBKTNV-1" vertex="1">
          <mxGeometry x="150" y="675" width="360" height="320" as="geometry" />
        </mxCell>
        <mxCell id="Q06K7-yVwiBWQH0qNbWU-49" value="exploratory_data_analysis_corpus.qmd&lt;br&gt;exploratory_data_analysis_quanteda.qmd" style="strokeWidth=2;html=1;shape=mxgraph.flowchart.document2;whiteSpace=wrap;size=0.25;verticalAlign=top;" parent="WIyWlLk6GJQsqaUBKTNV-1" vertex="1">
          <mxGeometry x="180" y="875" width="311" height="100" as="geometry" />
        </mxCell>
        <mxCell id="Q06K7-yVwiBWQH0qNbWU-50" value="Tools:&lt;br&gt;quanteda&lt;br&gt;tidytext&lt;br&gt;tidytable&lt;br&gt;ggplot2" style="rounded=1;whiteSpace=wrap;html=1;absoluteArcSize=1;arcSize=14;strokeWidth=2;align=center;" parent="WIyWlLk6GJQsqaUBKTNV-1" vertex="1">
          <mxGeometry x="174" y="705" width="106" height="155" as="geometry" />
        </mxCell>
        <mxCell id="Q06K7-yVwiBWQH0qNbWU-51" value="Techniques:&lt;br&gt;Frequency Analysis&lt;br&gt;Length of Total Characters&lt;br&gt;Distribution of Sources&lt;br&gt;Stopword Cleaning&lt;br&gt;Top Features&lt;br&gt;Lexical Similarity&lt;br&gt;Clustering&lt;br&gt;Latent Semantic Analysis" style="rounded=1;whiteSpace=wrap;html=1;absoluteArcSize=1;arcSize=14;strokeWidth=2;" parent="WIyWlLk6GJQsqaUBKTNV-1" vertex="1">
          <mxGeometry x="290" y="705" width="200" height="160" as="geometry" />
        </mxCell>
        <mxCell id="Q06K7-yVwiBWQH0qNbWU-65" style="rounded=0;orthogonalLoop=1;jettySize=auto;html=1;entryX=0.5;entryY=1;entryDx=0;entryDy=0;shape=flexArrow;fillColor=#FFFFFF;fillStyle=solid;" parent="WIyWlLk6GJQsqaUBKTNV-1" source="Q06K7-yVwiBWQH0qNbWU-54" target="Q06K7-yVwiBWQH0qNbWU-60" edge="1">
          <mxGeometry relative="1" as="geometry" />
        </mxCell>
        <mxCell id="Q06K7-yVwiBWQH0qNbWU-54" value="&lt;b&gt;Modeling&lt;/b&gt;" style="rounded=1;whiteSpace=wrap;html=1;fontSize=12;glass=0;strokeWidth=1;shadow=0;verticalAlign=top;" parent="WIyWlLk6GJQsqaUBKTNV-1" vertex="1">
          <mxGeometry x="920" y="520" width="360" height="320" as="geometry" />
        </mxCell>
        <mxCell id="Q06K7-yVwiBWQH0qNbWU-55" value="bigram_nlp_modeling_lasso_lsa.qmd&lt;br&gt;bigram_nlp_modeling_lasso_tfidf.qmd&lt;br&gt;bigram_nlp_modeling_naive_bayes_lsa.qmd&lt;br&gt;bigram_nlp_modeling_naive_bayes_tfidf.qmd" style="strokeWidth=2;html=1;shape=mxgraph.flowchart.document2;whiteSpace=wrap;size=0.25;verticalAlign=top;" parent="WIyWlLk6GJQsqaUBKTNV-1" vertex="1">
          <mxGeometry x="950" y="705" width="310" height="110" as="geometry" />
        </mxCell>
        <mxCell id="Q06K7-yVwiBWQH0qNbWU-56" value="Tools:&lt;br&gt;tidymodels&lt;br&gt;textrecipes&lt;br&gt;parallel" style="rounded=1;whiteSpace=wrap;html=1;absoluteArcSize=1;arcSize=14;strokeWidth=2;align=center;" parent="WIyWlLk6GJQsqaUBKTNV-1" vertex="1">
          <mxGeometry x="944" y="550" width="106" height="140" as="geometry" />
        </mxCell>
        <mxCell id="Q06K7-yVwiBWQH0qNbWU-57" value="Models:&lt;br&gt;Regularized Regresssion&lt;br&gt;Naive Bayes" style="rounded=1;whiteSpace=wrap;html=1;absoluteArcSize=1;arcSize=14;strokeWidth=2;" parent="WIyWlLk6GJQsqaUBKTNV-1" vertex="1">
          <mxGeometry x="1060" y="550" width="200" height="140" as="geometry" />
        </mxCell>
        <mxCell id="Q06K7-yVwiBWQH0qNbWU-60" value="&lt;b&gt;Deployment&lt;/b&gt;" style="rounded=1;whiteSpace=wrap;html=1;fontSize=12;glass=0;strokeWidth=1;shadow=0;verticalAlign=top;" parent="WIyWlLk6GJQsqaUBKTNV-1" vertex="1">
          <mxGeometry x="920" y="50" width="360" height="320" as="geometry" />
        </mxCell>
        <mxCell id="Q06K7-yVwiBWQH0qNbWU-61" value="" style="strokeWidth=2;html=1;shape=mxgraph.flowchart.document2;whiteSpace=wrap;size=0.25;verticalAlign=top;" parent="WIyWlLk6GJQsqaUBKTNV-1" vertex="1">
          <mxGeometry x="950" y="290" width="310" height="70" as="geometry" />
        </mxCell>
        <mxCell id="Q06K7-yVwiBWQH0qNbWU-62" value="Tools:&lt;br&gt;vetiver&lt;br&gt;pins&lt;br&gt;plumber&lt;br&gt;tidymodels&lt;br&gt;parallel" style="rounded=1;whiteSpace=wrap;html=1;absoluteArcSize=1;arcSize=14;strokeWidth=2;align=center;" parent="WIyWlLk6GJQsqaUBKTNV-1" vertex="1">
          <mxGeometry x="944" y="80" width="106" height="200" as="geometry" />
        </mxCell>
        <mxCell id="Q06K7-yVwiBWQH0qNbWU-63" value="Future Work" style="rounded=1;whiteSpace=wrap;html=1;absoluteArcSize=1;arcSize=14;strokeWidth=2;" parent="WIyWlLk6GJQsqaUBKTNV-1" vertex="1">
          <mxGeometry x="1060" y="80" width="200" height="200" as="geometry" />
        </mxCell>
      </root>
    </mxGraphModel>
  </diagram>
</mxfile>
